<?xml version="1.0" encoding="UTF-8"?><svg id="Layer_2" xmlns="http://www.w3.org/2000/svg" viewBox="0 0 166.97 46.53"><defs><style>.cls-1{fill:#e83113;}.cls-2{fill:none;}</style></defs><g id="Layer_1-2"><g><path class="cls-1" d="M96.62,32.93v12.56h-11.83v-12.46c-1.86-.4-3.23-.7-5.01-1.09,1.66-3.52,3.2-6.79,4.97-10.53,6.51,0,13.14,.07,19.76-.03,3.97-.06,5.73-1.83,5.71-5.3-.02-3.17-1.55-5-4.75-5.23-2.64-.19-5.3-.04-8.55-.04-.16,2.75-.31,5.32-.5,8.62h-11.54V.37c8.52,0,17.06-.96,25.29,.23,11.73,1.7,16.08,17.76,7.89,27-.99,1.11-2.09,2.12-3.25,3.28,3.4,4.66,6.81,9.32,10.81,14.81-4.9,0-8.98,.16-13.03-.11-1.07-.07-2.25-1.27-3.03-2.24-2.08-2.59-4.13-5.23-5.86-8.06-1.53-2.5-3.41-3.44-7.08-2.35Z"/><path class="cls-1" d="M138.71,45.54h-11.49V.6c2.55-1.32,4.13,.16,5.73,1.65,6.36,5.87,12.73,11.72,19.1,17.57,.83,.76,1.7,1.48,3.32,2.88V.42h11.6V45.18c-2.42,1.4-4.02-.09-5.64-1.57-5.79-5.25-11.59-10.5-17.4-15.74-1.45-1.31-2.94-2.58-5.22-4.57v22.23Z"/><path class="cls-1" d="M0,.18C7.98,.18,15.8-.16,23.57,.27c8.41,.46,13.21,9.41,9.7,17.39-.59,1.34-1.44,2.57-2.28,4.03,2.81,2.82,5.13,5.94,5.09,10.27-.07,7.72-4.57,13.16-12.29,13.6-7.78,.44-15.6,.1-23.79,.1V.18ZM10.01,19.57l-.77,.12c-.1,1.47-.06,2.96-.33,4.4-.3,1.62-1,3.18-1.27,4.8-.81,4.83,1.55,8.72,6,10.09,4.37,1.35,8.86-.54,10.8-4.8,1.86-4.09,2.21-8.21-.94-12.31-.22,1.57-.4,2.84-.61,4.31-2.09-2.38-3.41-4.59-2.81-7.73,.25-1.31-.59-2.84-.99-4.26-.06-.2-.42-.31-.63-.46-.86,.92-1.7,1.82-2.8,3-1.03-1.38-1.94-2.34-2.53-3.47-.62-1.19-.93-2.53-1.49-4.11-2.56,4.58-1.56,8.36,1.02,12.02,.19,.27-.23,.97-.56,2.13-.93-1.65-1.51-2.69-2.1-3.73Z"/><path class="cls-1" d="M39.4,.29h11.2c0,5.27,0,10.36,0,15.45,0,3.83-.11,7.66,.07,11.47,.24,5.44,3.55,8.63,8.44,8.43,4.66-.19,7.73-3.39,7.81-8.58,.12-8.15,.03-16.3,.05-24.45,0-.64,.11-1.28,.2-2.22h11.14c.11,1.29,.3,2.57,.3,3.85,.03,7.98,.08,15.97,0,23.95-.12,11.43-9.03,18.88-20.89,18.29-11.26-.55-18.67-7.65-18.75-18.93-.07-8.65,.02-17.29,.05-25.94,0-.31,.17-.61,.39-1.33Z"/><path class="cls-2" d="M10.01,19.57c.58,1.04,1.17,2.08,2.1,3.73,.32-1.16,.74-1.86,.56-2.13-2.58-3.66-3.58-7.44-1.02-12.02,.55,1.58,.87,2.93,1.49,4.11,.59,1.13,1.51,2.09,2.53,3.47,1.1-1.18,1.94-2.07,2.8-3,.21,.15,.57,.26,.63,.46,.4,1.42,1.24,2.95,.99,4.26-.61,3.14,.72,5.36,2.81,7.73,.21-1.47,.39-2.74,.61-4.31,3.15,4.1,2.8,8.21,.94,12.31-1.94,4.26-6.44,6.15-10.8,4.8-4.44-1.37-6.81-5.26-6-10.09,.27-1.63,.98-3.18,1.27-4.8,.26-1.44,.23-2.93,.33-4.4l.77-.12Z"/></g></g></svg>