<?xml version="1.0" encoding="UTF-8"?><svg id="Layer_2" xmlns="http://www.w3.org/2000/svg" viewBox="0 0 108.02 137.01"><defs><style>.cls-1{fill:#e83113;}.cls-2{fill:#fefefe;}</style></defs><g id="Layer_1-2"><g><path class="cls-1" d="M0,0C1.77,0,3.09,0,4.41,0c20.82,.12,41.64,.18,62.46,.43,3.45,.04,6.97,.67,10.33,1.53,14.02,3.59,22.91,13.95,24.82,28.6,1.96,15.05,.02,21.69-9.56,33.49,2.17,2.52,4.17,5.12,6.45,7.45,16.65,17.03,11.04,58.06-21.68,63.97-4.56,.82-9.23,1.42-13.86,1.46-20.16,.15-40.32,.05-60.48,.03-.82,0-1.64-.12-2.89-.21V0ZM38.14,21.68c-8.29,10.61-12.14,28.02,1.32,43.02-1.41,1.45-2.8,2.89-4.23,4.36-1.01-5.78-2.87-10.9-9.31-14.05,3.13,8.66,1.48,16.3-1.16,23.98-1.17,3.41-1.69,7.11-2.03,10.73-1.15,12.4,5,22.14,16.58,26.67,11.23,4.39,24.72,1.09,31.41-8.44,8.23-11.73,9.48-24.59,4.02-37.88-1.08-2.63-3.2-4.83-4.85-7.23-.32,.16-.64,.32-.96,.48,.81,5.29,2.02,10.6-.3,15.58-2.93-4.63-5.8-9.16-8.94-14.13,3.13-11.69,1.59-20.18-5.43-27.7-1.02,4.53-1.23,9.38-5.88,12.55-9.35-6.95-12.53-16.19-10.25-27.94Z"/><path class="cls-2" d="M38.14,21.68c-2.28,11.75,.9,21,10.25,27.94,4.65-3.18,4.86-8.02,5.88-12.55,7.02,7.52,8.56,16.01,5.43,27.7,3.14,4.97,6.01,9.51,8.94,14.13,2.33-4.98,1.11-10.29,.3-15.58,.32-.16,.64-.32,.96-.48,1.64,2.4,3.77,4.6,4.85,7.23,5.46,13.29,4.2,26.14-4.02,37.88-6.68,9.53-20.18,12.83-31.41,8.44-11.58-4.53-17.73-14.27-16.58-26.67,.33-3.62,.85-7.32,2.03-10.73,2.65-7.68,4.29-15.32,1.16-23.98,6.44,3.15,8.3,8.26,9.31,14.05,1.43-1.47,2.82-2.91,4.23-4.36-13.46-15-9.61-32.41-1.32-43.02Z"/></g></g></svg>